G04 MADE WITH FRITZING*
G04 WWW.FRITZING.ORG*
G04 DOUBLE SIDED*
G04 HOLES PLATED*
G04 CONTOUR ON CENTER OF CONTOUR VECTOR*
%ASAXBY*%
%FSLAX23Y23*%
%MOIN*%
%OFA0B0*%
%SFA1.0B1.0*%
%ADD10C,0.078000*%
%ADD11C,0.074000*%
%ADD12C,0.070000*%
%ADD13C,0.024000*%
%LNCOPPER0*%
G90*
G70*
G54D10*
X1402Y1253D03*
X1402Y1153D03*
X1402Y1053D03*
X1402Y953D03*
X1302Y1253D03*
X1302Y1153D03*
X1302Y1053D03*
X1302Y953D03*
G54D11*
X502Y153D03*
X602Y353D03*
X702Y153D03*
X202Y153D03*
X302Y353D03*
X402Y153D03*
X702Y1253D03*
X602Y1053D03*
X502Y1253D03*
X402Y1253D03*
X302Y1053D03*
X202Y1253D03*
G54D10*
X1002Y1253D03*
X1002Y1153D03*
X1002Y1053D03*
X1002Y953D03*
X1002Y853D03*
X1002Y753D03*
X1002Y653D03*
X1002Y553D03*
X1002Y453D03*
X1002Y353D03*
G54D11*
X602Y653D03*
X602Y496D03*
X602Y753D03*
X602Y911D03*
X302Y653D03*
X302Y496D03*
X302Y753D03*
X302Y911D03*
G54D12*
X1102Y353D03*
X1102Y453D03*
X1102Y553D03*
X1102Y653D03*
X1102Y753D03*
X1102Y853D03*
X1102Y953D03*
X1102Y1053D03*
X1102Y1153D03*
X1102Y1253D03*
G54D13*
X1402Y1172D02*
X1402Y1234D01*
D02*
X1402Y1072D02*
X1402Y1134D01*
D02*
X1402Y972D02*
X1402Y1034D01*
D02*
X1283Y1253D02*
X1121Y1253D01*
D02*
X1283Y1153D02*
X1121Y1153D01*
D02*
X1283Y953D02*
X1121Y953D01*
D02*
X1283Y1053D02*
X1121Y1053D01*
D02*
X1402Y854D02*
X1121Y854D01*
D02*
X1402Y934D02*
X1402Y854D01*
D02*
X602Y736D02*
X602Y671D01*
D02*
X502Y1353D02*
X202Y1353D01*
D02*
X502Y1273D02*
X502Y1353D01*
D02*
X202Y1353D02*
X202Y1273D01*
D02*
X602Y478D02*
X602Y373D01*
D02*
X621Y353D02*
X1082Y353D01*
D02*
X584Y753D02*
X319Y753D01*
D02*
X402Y1153D02*
X702Y1153D01*
D02*
X702Y1153D02*
X902Y653D01*
D02*
X902Y653D02*
X1082Y653D01*
D02*
X316Y1067D02*
X402Y1153D01*
D02*
X302Y1034D02*
X302Y929D01*
D02*
X902Y1153D02*
X702Y1353D01*
D02*
X702Y1353D02*
X502Y1353D01*
D02*
X983Y1153D02*
X902Y1153D01*
D02*
X502Y1353D02*
X502Y1273D01*
D02*
X284Y753D02*
X102Y753D01*
D02*
X102Y753D02*
X102Y1453D01*
D02*
X102Y1453D02*
X702Y1453D01*
D02*
X902Y1253D02*
X983Y1253D01*
D02*
X702Y1453D02*
X902Y1253D01*
D02*
X1021Y1253D02*
X1082Y1253D01*
D02*
X1021Y1153D02*
X1082Y1153D01*
D02*
X1021Y1053D02*
X1082Y1053D01*
D02*
X1021Y953D02*
X1082Y953D01*
D02*
X1021Y853D02*
X1082Y853D01*
D02*
X1021Y753D02*
X1082Y753D01*
D02*
X1021Y653D02*
X1082Y653D01*
D02*
X1021Y553D02*
X1082Y553D01*
D02*
X1021Y453D02*
X1082Y453D01*
D02*
X1021Y353D02*
X1082Y353D01*
D02*
X302Y671D02*
X302Y736D01*
D02*
X584Y653D02*
X319Y653D01*
D02*
X302Y373D02*
X302Y478D01*
D02*
X602Y929D02*
X602Y1034D01*
D02*
X502Y553D02*
X702Y553D01*
D02*
X702Y553D02*
X902Y453D01*
D02*
X902Y453D02*
X983Y453D01*
D02*
X319Y501D02*
X502Y553D01*
D02*
X613Y897D02*
X902Y553D01*
D02*
X902Y553D02*
X983Y553D01*
G04 End of Copper0*
M02*