; NON-PLATED HOLES START AT T1
; THROUGH (PLATED) HOLES START AT T100
M48
INCH
T1C0.125984
T100C0.038000
T101C0.035433
T102C0.039370
%
T1
X001017Y004534
X016017Y013534
X016017Y001534
T100
X010017Y004534
X010017Y003534
X013017Y012534
X010017Y011534
X014017Y012534
X013017Y010534
X013017Y009534
X010017Y008534
X010017Y005534
X010017Y009534
X010017Y006534
X013017Y011534
X010017Y007534
X014017Y009534
X010017Y012534
X014017Y011534
X014017Y010534
X010017Y010534
T101
X006017Y006534
X006017Y009109
X003017Y009109
X006017Y004959
X003017Y006534
X006017Y007534
X003017Y004959
X003017Y007534
T102
X011017Y004534
X011017Y006534
X011017Y010534
X011017Y003534
X002017Y012534
X004017Y001534
X004017Y012534
X007017Y012534
X011017Y005534
X005017Y001534
X007017Y001534
X005017Y012534
X003017Y003534
X011017Y008534
X003017Y010534
X011017Y011534
X006017Y003534
X006017Y010534
X002017Y001534
X011017Y012534
X011017Y007534
X011017Y009534
T00
M30
